<svg xmlns="http://www.w3.org/2000/svg" viewBox="0 0 64 64" width="64" height="64">
  <defs>
    <linearGradient id="g" x1="6" y1="6" x2="58" y2="58" gradientUnits="userSpaceOnUse">
      <stop offset="0" stop-color="#3FC9F6"/>
      <stop offset="0.55" stop-color="#1190ef"/>
      <stop offset="1" stop-color="#0C63AB"/>
    </linearGradient>
  </defs>
  <!-- brand tile -->
  <rect x="6" y="6" width="52" height="52" rx="13" fill="url(#g)"/>
  <!-- subtle lower-right fold, like the logo -->
  <path d="M58 32 V45 a13 13 0 0 1-13 13 H33 Z" fill="#0A5596" opacity="0.35"/>
  <!-- white N monogram with checkmark dip -->
  <path d="M20 45 V21 h6 l3.5 4.8 4-4.8 h0.5 l-7 9 7 9 v-0.2 l-8 -10.4 V45 Z" fill="#ffffff" opacity="0"/>
  <g fill="#ffffff">
    <!-- left leg -->
    <rect x="19" y="20" width="6.5" height="24" rx="1.2"/>
    <!-- right leg -->
    <rect x="38.5" y="20" width="6.5" height="24" rx="1.2"/>
    <!-- diagonal slash of the N -->
    <path d="M25.5 20 L45 44 L38.5 44 L19 20 Z"/>
    <!-- checkmark accent where the slash meets the left leg -->
    <path d="M22 33 l4 5 l3.5 -4.5 l-2.6 -3.2 l-1.1 1.5 l-1.4 -1.8 Z"/>
  </g>
</svg>
